<svg xmlns="http://www.w3.org/2000/svg" enable-background="new 0 0 24 24" viewBox="0 0 24 24"><path fill="#303c42" d="M12.335,0.13c-0.189-0.173-0.48-0.173-0.67,0C11.311,0.449,3,8.046,3,15c0,4.962,4.037,9,9,9   s9-4.038,9-9C21,8.046,12.689,0.449,12.335,0.13z"/><path fill="#bbdefb" d="M12,23c-4.411,0-8-3.589-8-8c0-5.752,6.442-12.312,8-13.813c1.558,1.5,8,8.056,8,13.813   C20,19.411,16.411,23,12,23z"/><linearGradient id="a" x1="5.55" x2="20.205" y1="9.499" y2="16.333" gradientUnits="userSpaceOnUse"><stop offset="0" stop-color="#fff" stop-opacity="0"/><stop offset="1" stop-color="#fff" stop-opacity=".2"/></linearGradient><path fill="url(#a)" d="M12,23c-4.411,0-8-3.589-8-8c0-5.752,6.442-12.312,8-13.813c1.558,1.5,8,8.056,8,13.813   C20,19.411,16.411,23,12,23z"/><linearGradient id="b" x1="7.128" x2="18.473" y1="8.989" y2="14.28" gradientUnits="userSpaceOnUse"><stop offset="0" stop-color="#fff" stop-opacity=".25"/><stop offset="1" stop-color="#fff" stop-opacity="0"/></linearGradient><path fill="url(#b)" d="M12.011,20.842c-3.237,0-5.871-3.234-5.871-7.208c0-5.183,4.728-11.093,5.871-12.446   c1.143,1.352,5.871,7.259,5.871,12.446C17.882,17.608,15.248,20.842,12.011,20.842z"/><linearGradient id="c" x1="10.892" x2="10.892" y1="19.484" y2="4.833" gradientUnits="userSpaceOnUse"><stop offset="0" stop-color="#fff" stop-opacity=".31"/><stop offset="1" stop-color="#fff" stop-opacity="0"/></linearGradient><path fill="url(#c)" d="M10.892,19.484c-2.541,0-4.609-2.41-4.609-5.373c0-3.863,3.712-8.269,4.609-9.277   c0.897,1.008,4.609,5.411,4.609,9.277C15.501,17.073,13.433,19.484,10.892,19.484z"/><circle cx="15.594" cy="18.004" r=".802" fill="#fff" opacity=".2"/><circle cx="13.709" cy="16.307" r=".448" fill="#fff" opacity=".2"/><path fill="#303c42" d="M12,20c-2.757,0-5-2.243-5-5c0-0.276-0.224-0.5-0.5-0.5S6,14.724,6,15c0,3.309,2.691,6,6,6   c0.276,0,0.5-0.224,0.5-0.5S12.276,20,12,20z"/><linearGradient id="d" x1="4.663" x2="21.137" y1="9.018" y2="16.7" gradientUnits="userSpaceOnUse"><stop offset="0" stop-color="#fff" stop-opacity=".2"/><stop offset="1" stop-color="#fff" stop-opacity="0"/></linearGradient><path fill="url(#d)" d="M12.335,0.13c-0.189-0.173-0.48-0.173-0.67,0C11.311,0.449,3,8.046,3,15c0,4.962,4.037,9,9,9   s9-4.038,9-9C21,8.046,12.689,0.449,12.335,0.13z"/></svg>